<svg 
 xmlns="http://www.w3.org/2000/svg"
 xmlns:xlink="http://www.w3.org/1999/xlink"
 width="16px" height="12px">
<path fill-rule="evenodd"  fill="rgb(255, 255, 255)"
 d="M15.000,6.999 L1.000,6.999 C0.448,6.999 -0.000,6.552 -0.000,5.999 C-0.000,5.448 0.448,4.999 1.000,4.999 L15.000,4.999 C15.552,4.999 16.000,5.448 16.000,5.999 C16.000,6.552 15.552,6.999 15.000,6.999 ZM15.000,1.999 L1.000,1.999 C0.448,1.999 -0.000,1.552 -0.000,0.999 C-0.000,0.448 0.448,-0.000 1.000,-0.000 L15.000,-0.000 C15.552,-0.000 16.000,0.448 16.000,0.999 C16.000,1.552 15.552,1.999 15.000,1.999 ZM1.000,9.999 L15.000,9.999 C15.552,9.999 16.000,10.448 16.000,10.999 C16.000,11.552 15.552,11.999 15.000,11.999 L1.000,11.999 C0.448,11.999 -0.000,11.552 -0.000,10.999 C-0.000,10.448 0.448,9.999 1.000,9.999 Z"/>
</svg>